<svg xmlns="http://www.w3.org/2000/svg" viewBox="0 0 64 64" fill="none">
  <!-- Building base -->
  <rect x="12" y="16" width="40" height="40" fill="#2563eb" stroke="#1e40af" stroke-width="1.5"/>
  
  <!-- Windows - Row 1 -->
  <rect x="18" y="22" width="6" height="6" fill="#93c5fd" rx="1"/>
  <rect x="29" y="22" width="6" height="6" fill="#93c5fd" rx="1"/>
  <rect x="40" y="22" width="6" height="6" fill="#93c5fd" rx="1"/>
  
  <!-- Windows - Row 2 -->
  <rect x="18" y="32" width="6" height="6" fill="#93c5fd" rx="1"/>
  <rect x="29" y="32" width="6" height="6" fill="#93c5fd" rx="1"/>
  <rect x="40" y="32" width="6" height="6" fill="#93c5fd" rx="1"/>
  
  <!-- Windows - Row 3 -->
  <rect x="18" y="42" width="6" height="6" fill="#93c5fd" rx="1"/>
  <rect x="29" y="42" width="6" height="6" fill="#93c5fd" rx="1"/>
  <rect x="40" y="42" width="6" height="6" fill="#93c5fd" rx="1"/>
  
  <!-- Entrance door -->
  <rect x="27" y="48" width="10" height="8" fill="#1e40af" rx="1"/>
  
  <!-- Roof/Top accent -->
  <path d="M10 16 L32 8 L54 16 Z" fill="#1e40af"/>
  
  <!-- Flag pole -->
  <line x1="32" y1="8" x2="32" y2="4" stroke="#dc2626" stroke-width="1.5"/>
  
  <!-- Flag -->
  <path d="M32 4 L38 6 L32 8 Z" fill="#dc2626"/>
  
  <!-- Ground line -->
  <rect x="8" y="56" width="48" height="2" fill="#64748b"/>
</svg>
